<?xml version="1.0" encoding="UTF-8"?>
<!DOCTYPE svg PUBLIC "-//W3C//DTD SVG 1.1//EN" "http://www.w3.org/Graphics/SVG/1.1/DTD/svg11.dtd">
<!-- Creator: CorelDRAW X8 -->
<svg xmlns="http://www.w3.org/2000/svg" xml:space="preserve" width="75px" height="50px" version="1.1" style="shape-rendering:geometricPrecision; text-rendering:geometricPrecision; image-rendering:optimizeQuality; fill-rule:evenodd; clip-rule:evenodd"
viewBox="0 0 1070 500"
 xmlns:xlink="http://www.w3.org/1999/xlink">
 <defs>
  <style type="text/css">
   <![CDATA[
    .fil4 {fill:#35B44F}
    .fil3 {fill:#6DBE4E}
    .fil1 {fill:#8BC43F}
    .fil2 {fill:#B0D24B}
    .fil0 {fill:#fff}
   ]]>
  </style>
 </defs>
 <g id="Layer_x0020_2">
  <metadata id="CorelCorpID_0Corel-Layer"/>
  <path class="fil0" d="M542 289c0,-5 -1,-5 -1,-10 0,-4 1,-5 1,-10 0,-7 0,-15 0,-22 7,0 11,1 15,4 0,29 1,30 -15,38zm-31 -36l0 -4c12,0 6,-1 15,-3 0,12 -1,23 -1,36 -6,-4 -14,-22 -14,-29zm16 -20c-4,0 -8,0 -12,1 -5,0 -3,0 -8,-3 -7,0 -16,8 -24,10 2,3 4,6 6,8 1,5 -3,32 25,51 3,3 4,3 7,6 5,4 6,0 6,7 -1,0 1,1 -5,0 0,11 2,11 9,17 5,-2 10,0 12,-6 2,-5 -1,-11 -1,-16 7,-11 24,-11 31,-21 4,-6 4,-20 5,-31 1,-4 3,-6 4,-10 -14,-21 -24,-7 -38,-12 0,-4 1,-14 1,-19 -10,-7 -4,-4 -14,-3 -4,1 -6,0 -6,4 -1,4 1,4 2,8 1,3 0,6 0,9z"/>
  <path class="fil0" d="M368 238c8,10 7,3 9,16l-2 32c-5,13 -5,4 7,23l7 0c6,-10 3,-27 3,-44 9,7 16,28 28,32 4,-3 3,-3 8,-5l9 -4 -7 -7c5,-10 13,-21 21,-29l0 59c-1,9 0,10 6,15l14 -9c8,-5 2,-11 2,-18 -1,-16 0,-33 0,-50 1,-4 4,0 4,-10l-18 -11c-11,0 -6,2 -12,8l-18 22c-1,2 -3,3 -4,5l-4 6c-8,-11 -23,-34 -32,-41l-21 10z"/>
  <path class="fil0" d="M527 179l0 -21c7,-2 5,-4 22,-1 1,1 1,1 3,1 4,2 1,1 3,2 -3,10 -18,18 -28,19zm24 -41l-25 6c2,-7 4,-7 7,-12 9,4 10,-1 20,-1l-2 7zm-48 -11c0,13 8,1 4,28 0,6 -2,11 -3,16l8 11c-6,1 -7,1 -9,7 2,8 1,9 0,16l2 4c6,0 8,-2 13,-4 4,-1 9,-3 13,-4 13,-6 32,-14 39,-28 6,-14 -2,-19 -7,-24l6 -1c0,-13 6,-11 7,-20 -3,-4 -8,-9 -13,-11 -6,1 -8,3 -16,2 -6,-1 -10,-1 -16,2l-5 -6c-5,1 -19,9 -23,12z"/>
  <path class="fil0" d="M984 251l-25 6c1,-4 4,-11 9,-12 2,0 4,1 9,0 5,-2 3,-2 9,-2l-2 8zm-48 -12l0 7 5 3c0,12 1,26 -2,37 -1,6 -3,8 2,13 5,5 5,2 10,10l7 0c6,-9 4,-24 4,-39 5,-2 3,-2 10,-2 6,9 11,18 17,28 6,9 11,24 23,24 6,-3 12,-6 17,-9l0 -6c-15,-7 -21,-16 -30,-29l-6 -13c12,-3 10,-3 11,-9 1,-6 5,-6 6,-14 -6,-6 -9,-12 -19,-9 -9,3 -14,-3 -26,2 -1,-1 1,1 -1,-2 -1,-1 -2,-2 -2,-3 -8,0 -20,7 -26,11z"/>
  <path class="fil0" d="M696 235c-6,3 -9,5 -13,9 20,40 22,25 32,23 4,-1 10,0 15,0 0,13 -8,26 -15,37l-6 0c-8,-6 -10,-10 -21,-10l-5 7c4,8 13,13 15,15 2,2 4,12 21,6 23,-7 42,-49 42,-60 -17,-11 -12,-14 -23,-10 -4,2 -6,1 -10,1 -8,0 -14,3 -16,-5 7,0 12,2 21,1 4,0 4,-1 10,-1 3,0 7,0 11,0l4 -6c-5,-8 -3,-2 -16,-10 -6,-4 -7,-5 -14,-3l-23 6c-5,1 -4,0 -9,0z"/>
  <path class="fil0" d="M712 137c2,11 8,5 11,16 -7,1 -17,0 -25,0 2,-7 8,-13 14,-16zm-12 -19c-14,4 -22,27 -27,36l-7 1 1 -5c-9,0 -10,1 -15,8 1,5 0,7 3,10 6,5 9,2 16,1l-4 12c4,6 9,7 14,15l7 0c3,-6 3,-5 2,-13 -1,-7 0,-8 1,-14 12,0 25,0 34,1 5,1 4,0 5,4 3,10 -3,20 5,22 8,-1 6,-5 13,-10 0,-13 0,-4 -5,-15l5 0c3,-6 2,-8 3,-14l-2 -5 -12 3c-3,-4 -5,-11 -8,-16 -6,-12 -3,-15 -6,-19 -3,-2 -7,-3 -10,-5 -5,-3 -6,-6 -10,-8l-3 11z"/>
  <path class="fil0" d="M649 217l4 6 -1 41c-6,-1 -36,-30 -47,-36 -6,5 -17,8 -20,11l3 2c5,3 3,1 5,4 2,6 1,30 1,38 0,7 -4,9 -2,15 1,3 7,9 10,11l5 0c4,-7 5,-14 3,-24 -2,-10 -1,-20 -1,-29l43 34 0 16c11,9 18,-8 18,-8 0,0 -5,-62 -3,-68 1,-3 12,-6 -6,-19 -8,-5 -11,3 -12,6z"/>
  <path class="fil0" d="M824 127l0 7 5 3c0,8 0,15 0,23 0,26 -11,16 5,30 5,5 1,7 10,7 8,-2 5,-28 5,-39l6 -3c7,4 14,19 18,26 3,6 9,14 13,19 5,4 3,1 8,4 3,-2 5,-4 7,-5 6,-3 5,-1 10,-4l0 -6c-12,-6 -12,-6 -20,-16 -6,-7 -11,-13 -13,-23 11,-2 9,-1 11,-8 1,-5 5,-7 7,-14l-9 -11c-12,0 -14,-1 -18,6l4 7c-6,14 -4,6 -24,15l0 -18c3,-1 3,0 4,-5l-5 -5c-6,0 -18,7 -24,10z"/>
  <path class="fil0" d="M860 238l-2 5 3 4c0,0 1,1 1,1 0,0 0,0 1,0l1 1c0,20 1,17 -1,36 -1,5 -2,5 -4,9 1,5 2,6 8,8 6,3 6,3 11,7 6,0 5,-2 10,-3 3,0 9,0 13,0 4,0 9,1 12,0 8,-1 3,0 10,2 12,-6 10,-12 10,-24 -3,-3 -1,-2 -8,-2 -5,6 -2,8 -9,10 -5,2 -29,4 -31,-2 0,-1 0,-16 0,-18l12 -2c1,1 1,1 1,1l6 6c7,-2 8,-10 9,-16l-3 -5c-13,0 1,2 -25,2 0,-16 0,-13 17,-12 15,0 13,15 21,12l6 -5c-1,-7 -3,-17 -10,-20 -1,-1 -25,0 -29,0 -5,-3 -8,-7 -15,-2 -14,10 -6,2 -15,7z"/>
  <path class="fil0" d="M745 128c0,8 16,39 21,46 4,5 6,8 10,13 7,8 19,18 30,14 5,-1 8,-7 11,-11 7,-6 6,-8 1,-15l-6 0c-9,3 -14,26 -33,-29 -4,-11 -8,-16 7,-16 10,1 10,7 15,14l7 0 4 -6c-2,-7 -2,-15 -8,-20 -3,-2 -5,-2 -9,-1l-25 0c-5,-1 -5,-4 -10,-2 -3,1 -13,11 -15,13z"/>
  <path class="fil0" d="M759 252c12,12 10,-4 22,-7 4,-1 10,-2 12,1 2,4 0,31 -1,37 -2,18 -8,11 15,26l8 -2c-1,-11 -1,-21 -1,-32 0,-11 2,-19 2,-31 33,0 13,6 29,10 6,-3 7,-3 6,-10 -1,-5 -1,-10 -6,-12l-70 -1c-12,-1 -17,13 -16,21z"/>
  <path class="fil0" d="M583 131c1,3 2,4 5,6 0,8 0,17 0,26 0,2 0,10 0,12 -2,6 -11,11 8,17 8,3 3,4 13,3l27 -1c4,1 4,1 9,1 7,-11 6,-7 6,-22l-5 -4c-10,5 -4,10 -15,12 -6,1 -13,2 -18,0 -4,-1 -3,0 -3,-5 0,-7 0,-19 0,-27 0,-9 -2,-18 4,-25l-2 -5c-8,-4 -10,-1 -16,3 -6,4 -11,0 -13,9z"/>
  <path class="fil1" d="M821 360l17 0 0 6 -17 0 0 -6zm-9 22l9 0 0 -10c6,0 8,1 12,6 6,5 8,4 16,4l-12 -10 8 -1c2,-9 3,-10 -1,-16l-32 0 0 27z"/>
  <path class="fil1" d="M623 357l2 25 32 0c4,-4 3,-6 3,-16l-20 0 0 5 12 0 0 5 -21 0 0 -16 21 0 0 3c6,0 5,-1 8,-2l-3 -7c-6,1 -12,1 -18,1 -15,0 -10,-2 -16,2z"/>
  <path class="fil1" d="M577 360l18 0 0 6 -18 0 0 -6zm-8 22l8 0 0 -10c8,0 5,-1 10,3 4,3 5,3 7,7l13 0 -13 -10c9,0 4,0 10,-4 0,-7 1,-7 -2,-13l-33 0 0 27z"/>
  <path class="fil1" d="M785 373c-8,4 -13,3 -21,3l0 -16c3,0 7,-1 10,0 4,0 3,1 8,1 4,6 4,5 3,12zm-30 9l24 0c19,0 20,-27 0,-27l-24 0 0 27z"/>
  <path class="fil1" d="M517 382l34 0c0,-8 0,-6 -25,-6l0 -5 15 0 0 -7 -15 0 0 -4 25 0 0 -5 -34 0 0 27z"/>
  <path class="fil1" d="M408 382l34 0c0,-8 0,-6 -25,-6l0 -5c6,0 15,1 15,-3 0,-5 -4,-4 -15,-4l0 -4 25 0 0 -5 -34 0 0 27z"/>
  <path class="fil1" d="M895 382l7 0 0 -18c9,6 19,18 30,18l0 -27 -7 0 0 17c-5,-3 -10,-7 -14,-10 -12,-9 -7,-7 -16,-7l0 27z"/>
  <path class="fil1" d="M460 382l8 0 0 -18c4,3 9,7 14,10 7,6 6,8 16,8l0 -27 -8 0 0 17c-11,-8 -19,-17 -30,-17l0 27z"/>
  <path class="fil1" d="M953 382l9 0 0 -10c12,3 5,10 28,10 -2,-4 -16,-12 -21,-14 4,-6 15,-8 19,-13 -16,0 -14,1 -26,9l0 -9 -9 0 0 27z"/>
  <path class="fil1" d="M688 368l0 14 9 0 0 -13 16 -14 -10 0 -9 9c-12,-11 -7,-9 -21,-9 4,5 10,10 15,13z"/>
  <polygon class="fil1" points="866,382 874,382 874,355 866,355 "/>
  <path class="fil0" d="M1032 243l2 0 0 4 -2 0 0 -4zm-7 -1l0 6 3 2 6 1 2 -3 0 -6 -3 -2c-7,-1 -3,-1 -8,2z"/>
 </g>
 <g id="monster_x0020_icon">
  <metadata id="CorelCorpID_1Corel-Layer"/>
  <path class="fil2" d="M132 51c14,-1 8,-2 22,2 4,-1 1,0 4,-2 8,2 11,10 17,15 -1,3 0,1 -3,3l3 3c-1,8 -1,10 0,18l-4 2c-1,11 6,9 11,16 0,12 -8,11 -2,29 3,8 -2,25 0,28l6 6c1,6 -1,15 -2,21 -1,6 -1,5 -1,11 1,3 0,5 0,9 3,5 3,2 4,8 2,13 8,17 3,27 -5,10 -5,22 -7,28 -1,5 -2,4 -4,7 -1,9 -4,12 -8,21 0,6 9,15 10,18 -2,9 -4,23 -1,31 2,5 5,3 3,12 -1,8 -2,4 1,12 -2,4 -3,3 -3,7 0,2 1,5 1,8 1,6 3,10 4,15l-6 8c0,12 5,8 8,16 3,6 0,10 5,16 0,2 1,10 0,12 0,4 0,-1 -1,4 -1,2 0,3 -1,5 0,3 -6,17 -2,18 -1,-5 9,-21 8,-38 -1,-9 -3,-2 -3,-21 0,-8 3,-15 0,-23 -6,-17 -2,-24 -2,-42 0,-8 1,-14 1,-22l0 -47c1,-14 8,-22 9,-26 5,-15 6,-13 11,-24 3,-6 1,-15 -2,-20 -2,-4 -4,-14 -4,-19 -1,-7 0,-16 1,-23 1,-4 3,-14 5,-18 3,-3 -2,-20 -2,-28 0,-24 -4,-18 -5,-28 -1,-6 0,-59 -2,-62 -3,-8 -8,-8 -16,-8 -4,0 -8,0 -11,2l-10 4c-5,2 1,0 -2,1 -1,0 -4,1 -5,1 -13,3 -21,0 -30,7l2 0z"/>
  <path class="fil3" d="M32 49c-5,2 -12,0 -15,5 9,-2 21,-1 30,-1 4,0 11,1 14,0 7,-1 18,-11 29,-6 8,3 1,2 17,5 10,2 5,1 10,4 0,9 0,17 -3,25 -1,1 -3,2 -4,3 -1,3 0,2 -2,5 -2,2 -8,4 -8,18 0,3 0,8 1,11 8,23 -7,18 -2,44 0,5 0,9 1,13 0,6 4,14 5,20 2,11 12,19 7,31 -5,11 -6,6 -5,20 0,4 -1,16 0,19 1,2 0,-1 1,2 4,10 3,16 0,25 -4,12 -9,31 -8,44 1,4 2,7 3,11 1,3 0,24 2,37 1,13 1,33 7,45 -1,2 0,1 -3,1l5 6c0,6 -3,13 3,16l-1 -4c2,-8 4,-10 -1,-17 -13,-15 -2,-72 -7,-90 -4,-15 3,-30 6,-43 6,-29 4,-17 0,-32 -2,-7 -2,-27 1,-33 2,-6 7,-13 5,-20 -1,-4 -6,-12 -8,-17 -2,-7 -7,-36 -7,-42 0,-10 4,-13 5,-20 3,-11 -10,-34 3,-41 1,-3 3,-7 6,-9 4,-2 2,1 10,-5 -1,-8 -4,-9 2,-15l-2 -10 3 -3 -2 0c9,-7 17,-4 30,-7 1,0 4,-1 5,-1 3,-1 -3,1 2,-1l10 -4c3,-2 7,-2 11,-2 8,0 13,0 16,8 2,3 1,56 2,62 1,10 5,4 5,28 0,8 5,25 2,28 -2,4 -4,14 -5,18 -1,7 -2,16 -1,23 0,5 2,15 4,19 3,5 5,14 2,20 -5,11 -6,9 -11,24 -1,4 -8,12 -9,26l0 47c0,8 -1,14 -1,22 0,18 -4,25 2,42 3,8 0,15 0,23 0,19 2,12 3,21 1,17 -9,33 -8,38 1,2 -2,2 2,2 1,-6 1,-6 5,-11 5,-6 1,-7 6,-11 0,-8 0,-18 4,-25 -1,-2 -1,-6 -1,-9 1,-3 2,-3 3,-7 1,-11 -3,-6 3,-16 2,-5 -1,-9 -4,-13 -4,-5 -3,-8 -6,-13 1,-7 2,-9 2,-18 1,-8 0,-10 -1,-18l5 -5c0,-7 -3,-15 -1,-23 3,-7 -1,-5 -1,-9 -1,-3 2,-6 2,-9 -3,-9 -3,-4 -2,-15 1,-4 10,-21 11,-27 0,-6 3,-8 4,-13 5,-18 -2,-23 -5,-39 -1,-7 -1,-14 1,-21 2,-6 0,-14 5,-18l1 -2c0,-6 0,-10 -1,-16 -1,-4 -2,-10 -2,-14 -1,-23 -4,-23 -4,-30 0,-16 -1,-19 6,-29 3,-3 8,-21 6,-26 -3,-3 -2,0 -3,-4 -7,-16 -24,-22 -38,-19 -3,1 -3,2 -5,3l-43 14c-12,5 -11,9 -23,4 -7,-3 -18,-5 -26,-7 -4,-1 -11,-1 -15,1 -28,11 -20,4 -42,7z"/>
  <path class="fil2" d="M17 54c-4,1 -4,2 -7,4 19,1 2,-5 34,3 6,2 11,0 17,4 5,3 7,9 8,13l-3 7c3,5 3,3 8,6 3,2 7,14 5,21 -3,8 1,5 1,11 -1,5 -6,14 -7,20 -8,36 -4,19 5,41 5,10 11,32 10,44 0,4 2,8 1,13 -1,5 -3,5 -3,11l6 4c0,7 0,9 1,17 4,20 -5,22 -12,39 2,6 6,5 10,11 0,9 -5,9 0,18 5,8 3,5 0,13 0,6 4,11 6,17 2,6 3,14 5,20 2,11 0,30 7,39 3,0 2,1 3,-1 -6,-12 -6,-32 -7,-45 -2,-13 -1,-34 -2,-37 -1,-4 -2,-7 -3,-11 -1,-13 4,-32 8,-44 3,-9 4,-15 0,-25 -1,-3 0,0 -1,-2 -1,-3 0,-15 0,-19 -1,-14 0,-9 5,-20 5,-12 -5,-20 -7,-31 -1,-6 -5,-14 -5,-20 -1,-4 -1,-8 -1,-13 -5,-26 10,-21 2,-44 -1,-3 -1,-8 -1,-11 0,-14 6,-16 8,-18 2,-3 1,-2 2,-5 1,-1 3,-2 4,-3 3,-8 3,-16 3,-25 -5,-3 0,-2 -10,-4 -16,-3 -9,-2 -17,-5 -11,-5 -22,5 -29,6 -3,1 -10,0 -14,0 -9,0 -21,-1 -30,1z"/>
  <path class="fil2" d="M245 60c-2,2 -6,5 -7,8 9,2 11,-4 20,3 6,5 10,3 17,1 5,3 7,3 12,4 6,3 1,6 8,8 -2,7 -3,2 -2,10 0,5 -1,6 -1,11 0,4 2,5 1,10 -1,3 -2,5 -3,9l5 5c-3,8 -11,13 -13,16 5,10 10,4 6,17 -1,4 0,6 0,9l-3 4c1,4 2,7 3,12 1,4 4,4 6,9 5,11 6,7 3,20 -6,27 3,20 4,34 1,7 -1,8 3,13 -3,7 -2,8 -3,15 -1,7 1,11 0,17 0,4 -1,6 -1,9 -1,3 0,6 0,9 -1,3 -5,9 -7,13 1,3 2,4 3,8 3,5 1,5 0,9 -1,11 2,9 -7,16 0,7 1,10 4,16 4,7 1,9 1,16 -1,6 -3,12 -1,17 2,6 2,12 3,18 2,1 0,0 1,0 1,-8 -1,-20 1,-28 0,-4 2,-8 3,-11 0,-1 0,-3 0,-4l3 -7c2,-8 0,-17 1,-26 2,-23 1,-10 0,-25 0,-6 0,-9 2,-13 2,-5 2,-6 2,-11 1,-9 -1,-19 1,-28 1,-5 1,-7 2,-13 0,-9 6,-16 -2,-34 -6,-13 -3,-29 -3,-40 -1,-6 -9,-22 0,-49 3,-9 4,-22 8,-33 1,-3 1,-4 1,-7 1,-3 1,0 2,-4 1,-9 -3,-24 -8,-31l-12 -16c-21,-1 -12,5 -22,11 -8,4 -20,5 -29,5l-2 -2z"/>
  <path class="fil3" d="M283 40c-9,15 -8,5 -17,11 -6,5 -4,3 -12,4 -5,0 -7,1 -9,5l2 2c9,0 21,-1 29,-5 10,-6 1,-12 22,-11l12 16c5,7 9,22 8,31 -1,4 -1,1 -2,4 0,3 0,4 -1,7 -4,11 -5,24 -8,33 -9,27 -1,43 0,49 0,11 -3,27 3,40 8,18 2,25 2,34 -1,6 -1,8 -2,13 -2,9 0,19 -1,28 0,5 0,6 -2,11 -2,4 -2,7 -2,13 1,15 2,2 0,25 -1,9 1,18 -1,26l-3 7c0,1 0,3 0,4 -1,3 -3,7 -3,11 -2,8 0,20 -1,28l4 -4c-1,-10 -4,-10 2,-20 3,-6 4,-10 7,-17 3,-6 9,-8 7,-16 -7,-31 5,-25 1,-42 -1,-4 -8,-8 -2,-17 4,-6 8,-10 6,-18 -1,-4 -4,-5 -4,-8 -2,-4 1,-1 -2,-8l1 -7c0,-12 5,-21 3,-35 -1,-7 -5,-9 -6,-14 -2,-6 -2,-12 -2,-18 0,-8 3,-15 0,-21 -2,-5 -2,-7 -2,-14 0,-15 -1,-22 5,-35 1,-5 2,-11 4,-15 2,-4 10,-25 10,-29 0,-6 -1,-16 -3,-21 0,0 0,0 0,0 -6,-11 -9,-25 -25,-28 -8,-2 -11,1 -18,1z"/>
  <path class="fil4" d="M32 49c22,-3 14,4 42,-7 4,-2 11,-2 15,-1 8,2 19,4 26,7 12,5 11,1 23,-4l43 -14c2,-1 2,-2 5,-3 14,-3 31,3 38,19 1,4 0,1 3,4 2,5 -3,23 -6,26 -7,10 -6,13 -6,29 0,7 3,7 4,30 0,4 1,10 2,14 1,6 1,10 1,16 18,-10 -2,-27 3,-41 6,-15 -3,-10 -5,-19 0,-4 3,-6 3,-10 -1,-3 -3,-6 -3,-11 6,-7 2,-5 5,-10 5,-8 7,1 8,-14 4,-3 4,-6 7,-8 4,-2 7,0 10,-5 -3,-3 -9,-3 -14,-5l2 -7c-4,-4 -5,-3 -9,-5 -4,-2 -5,-4 -7,-6 -3,-2 -7,-2 -10,-4 -5,-2 -3,-4 -7,-7 -6,1 -4,3 -9,5 -21,10 -24,3 -31,13 -11,1 -13,-3 -21,4 -4,4 -3,2 -8,4 -4,2 -6,3 -9,5 -4,-2 -4,-2 -6,-5 -7,-1 -13,1 -20,-1 -7,-3 -6,-6 -10,-11 -5,2 -2,2 -5,5 -2,2 -4,1 -8,3 -5,3 -5,6 -13,7 -7,1 -14,-1 -19,0 -6,1 -3,3 -6,4 -4,2 -4,-1 -8,3z"/>
  <path class="fil4" d="M283 40c7,0 10,-3 18,-1 16,3 19,17 25,28 0,0 0,0 0,0 2,5 3,15 3,21 0,4 -8,25 -10,29 -2,4 -3,10 -4,15 -6,13 -5,20 -5,35 0,7 0,9 2,14 3,6 0,13 0,21 0,6 0,12 2,18 1,5 5,7 6,14 2,14 -3,23 -3,35 3,-3 5,-10 7,-14 5,-10 4,-7 2,-16 7,-13 -5,-19 -9,-29 -5,-11 3,-23 4,-35 -2,-3 -4,-3 -7,-6 1,-9 2,3 2,-19 0,-12 -5,-5 3,-17 6,-8 1,-5 6,-18 3,-9 1,-8 9,-15 0,-13 1,-10 8,-21l-6 -6c2,-9 5,-3 0,-16l-6 -2c1,-5 3,-6 2,-10 -2,-2 -4,0 -7,-5 -8,-11 -7,-4 -17,-7 -4,-2 -3,-4 -6,-7 -3,2 -4,4 -7,6 -5,3 -7,2 -10,4l-2 4z"/>
  <path class="fil4" d="M115 431c-1,-8 -2,-15 -3,-23 0,-7 3,-15 3,-23 0,-6 -3,-5 -3,-9 0,-5 3,-6 3,-11 0,-5 -2,-4 0,-10 1,-3 3,-6 2,-9 -4,-18 -8,-21 -2,-40 3,-6 3,-13 5,-19 7,-21 9,-18 -1,-26 -1,-8 2,-13 2,-20l-4 -4c0,-3 7,-16 9,-19 7,-11 1,-10 -3,-18 -2,-4 -3,-7 -4,-10 -3,-5 -2,-8 -3,-12 -2,-4 -5,-4 -4,-10 0,-11 4,-10 -3,-17 1,-18 11,-20 10,-34 -3,-1 -3,-1 -6,-1 0,-8 -1,-17 0,-23 -13,7 0,30 -3,41 -1,7 -5,10 -5,20 0,6 5,35 7,42 2,5 7,13 8,17 2,7 -3,14 -5,20 -3,6 -3,26 -1,33 4,15 6,3 0,32 -3,13 -10,28 -6,43 5,18 -6,75 7,90z"/>
  <path class="fil4" d="M220 245c14,-8 8,-24 3,-36 -7,-18 -2,-22 -1,-30 1,-5 0,-8 -1,-12 -5,4 -3,12 -5,18 -2,7 -2,14 -1,21 3,16 10,21 5,39z"/>
 </g>
</svg>
