<?xml version="1.0" encoding="UTF-8"?>
<!DOCTYPE svg PUBLIC "-//W3C//DTD SVG 1.1//EN" "http://www.w3.org/Graphics/SVG/1.1/DTD/svg11.dtd">
<!-- Creator: CorelDRAW X8 -->
<svg xmlns="http://www.w3.org/2000/svg" xml:space="preserve" width="75px" height="50px" version="1.1" style="shape-rendering:geometricPrecision; text-rendering:geometricPrecision; image-rendering:optimizeQuality; fill-rule:evenodd; clip-rule:evenodd"
viewBox="0 0 1070 500"
 xmlns:xlink="http://www.w3.org/1999/xlink">
 <defs>
  <style type="text/css">
   <![CDATA[
    .fil1 {fill:#fff}
    .fil0 {fill:#fff}
    .fil2 {fill:#fff}
   ]]>
  </style>
 </defs>
 <g id="daddario">
  <metadata id="CorelCorpID_0Corel-Layer"/>
  <path class="fil0" d="M252 209c17,0 37,0 50,12 24,21 24,57 0,77 -13,11 -33,11 -50,11l0 -100zm-30 129c27,0 69,3 91,-12 54,-35 43,-109 0,-133 -25,-15 -62,-12 -90,-12 -2,5 -1,148 -1,157z"/>
  <path class="fil0" d="M509 244c19,-2 37,11 40,30 2,19 -11,37 -30,39 -19,3 -37,-10 -40,-29 -3,-19 11,-37 30,-40zm38 -12c-9,-9 -16,-13 -29,-15 -36,-5 -70,26 -68,65 3,56 69,80 99,40l0 16 27 0 0 -157 -29 0 0 51z"/>
  <path class="fil0" d="M638 244c18,-2 36,11 39,30 3,19 -10,37 -29,39 -20,4 -37,-10 -40,-29 -3,-20 11,-37 30,-40zm37 -13c-11,-7 -14,-12 -30,-14 -13,-2 -24,1 -35,7 -21,11 -32,35 -31,59 1,22 15,45 35,53 12,6 25,7 38,4 18,-5 21,-14 26,-18l0 16 26 0 0 -157 -28 0c-2,6 0,41 -1,50z"/>
  <path class="fil1" d="M82 320c-1,2 1,1 -3,2 0,0 -2,0 -2,0l5 -2zm0 0c60,-36 42,-112 -11,-129 -20,-6 -49,-3 -69,-4l0 7c42,0 80,-8 103,34 10,17 10,39 2,57 -5,11 -22,30 -36,32 30,-15 44,-54 26,-84 -22,-36 -57,-31 -96,-31l1 7c35,0 69,-6 89,27 17,29 1,67 -25,76 -1,2 -2,2 -5,2l5 -3c21,-10 33,-44 16,-70 -19,-28 -50,-23 -80,-23l0 6c28,0 59,-5 76,22 17,29 -6,61 -24,64 20,-11 28,-38 15,-58 -15,-23 -43,-19 -67,-19l0 7c12,0 36,-2 47,3 28,13 25,51 0,62 -12,5 -34,3 -47,3l0 30c19,0 40,1 59,0 48,-2 88,-42 88,-91 0,-49 -40,-89 -88,-91 -20,0 -40,0 -60,0l1 7c25,0 62,-3 84,5 46,16 70,71 48,114 -8,17 -28,39 -45,43 18,-10 31,-23 39,-43 9,-21 8,-48 -4,-68 -29,-51 -75,-42 -122,-42l0 6c48,1 90,-8 117,40 16,28 8,68 -14,87 -4,4 -17,15 -23,15z"/>
  <path class="fil0" d="M736 284c-5,-48 64,-54 70,-10 6,50 -65,53 -70,10zm97 54l0 -117 0 -1 -26 0 0 1 0 15 -1 -1c-26,-37 -99,-18 -99,45 1,52 51,76 88,53 5,-3 7,-7 12,-10l0 15 26 0z"/>
  <path class="fil0" d="M417 230l1 -1 0 9c0,6 1,28 -1,31l-24 0 24 -39zm-67 108c4,-3 20,-34 26,-41l42 0 0 41 29 0 0 -157 -26 0 -104 157 33 0z"/>
  <path class="fil0" d="M1001 245c19,-4 36,10 39,28 3,20 -9,37 -28,40 -46,8 -57,-60 -11,-68zm68 41c4,-35 -22,-66 -56,-69 -35,-4 -66,20 -70,55 -4,34 21,65 55,69 36,4 67,-20 71,-55z"/>
  <path class="fil0" d="M873 233l-2 2c0,-5 1,-11 0,-15l-25 0 0 118 28 0c0,-20 0,-39 0,-58 0,-21 4,-30 26,-32l0 -28c-11,-1 -23,4 -27,13z"/>
  <polygon class="fil0" points="909,338 938,338 938,224 938,220 909,220 909,224 "/>
  <path class="fil0" d="M350 207l27 0c2,-3 15,-31 15,-34l-28 0 -14 34z"/>
  <path class="fil0" d="M952 175c0,-2 3,-1 -2,-1l-26 0 -14 33 27 0c3,-2 6,-12 8,-15 2,-4 6,-13 7,-17z"/>
  <path class="fil2" d="M806 235l1 1 0 -15 0 -1 26 0 0 1 0 117c1,-2 1,-4 1,-7 -1,-28 1,-92 -1,-111 -3,-1 -23,-1 -26,0l-1 13c0,3 0,1 0,2z"/>
  <path class="fil2" d="M417 269c2,-3 1,-25 1,-31l0 -9 -1 1 0 2 0 37z"/>
  <path class="fil2" d="M952 175c2,-1 1,1 1,-2 -6,0 -25,-1 -29,1l26 0c5,0 2,-1 2,1z"/>
  <path class="fil2" d="M873 233c-1,-1 -1,-2 -1,-5 0,-2 0,-4 0,-6 0,-3 0,-1 -1,-2 1,4 0,10 0,15l2 -2z"/>
 </g>
</svg>
