<?xml version="1.0" encoding="UTF-8"?>
<!DOCTYPE svg PUBLIC "-//W3C//DTD SVG 1.1//EN" "http://www.w3.org/Graphics/SVG/1.1/DTD/svg11.dtd">
<!-- Creator: CorelDRAW X8 -->
<svg xmlns="http://www.w3.org/2000/svg" xml:space="preserve" width="75px" height="50px" version="1.1" style="shape-rendering:geometricPrecision; text-rendering:geometricPrecision; image-rendering:optimizeQuality; fill-rule:evenodd; clip-rule:evenodd"
viewBox="0 0 1070 500"
 xmlns:xlink="http://www.w3.org/1999/xlink">
 <defs>
  <style type="text/css">
   <![CDATA[
    .fil0 {fill:#fff}
   ]]>
  </style>
 </defs>
 <g id="evans">
  <metadata id="CorelCorpID_0Corel-Layer"/>
  <path class="fil0" d="M218 361c-19,-12 -108,-32 -145,-96 -38,-67 14,-125 67,-154 115,-63 268,-77 396,-77 124,0 288,15 398,79 52,30 104,88 62,154 -22,37 -65,61 -103,78 -47,21 -40,4 -41,49 70,-15 138,-48 188,-100 26,-27 36,-74 23,-110 -11,-33 -38,-60 -65,-79 -198,-133 -729,-134 -926,1 -27,18 -54,47 -65,79 -12,37 -2,83 25,110 50,51 118,84 187,99l-1 -33z"/>
  <path class="fil0" d="M662 195l32 103 77 0 0 -157 -48 0 -1 99 -32 -99 -77 0c0,29 0,58 0,88 0,19 6,52 16,69l32 0 1 -103z"/>
  <polygon class="fil0" points="278,459 793,459 802,494 838,494 822,430 248,430 234,494 269,494 "/>
  <path class="fil0" d="M504 226c1,-11 11,-42 16,-49l14 49 -30 0zm-9 38l47 0 10 34 58 0 -51 -157 -74 0c-6,2 -51,147 -53,157l55 0 8 -34z"/>
  <path class="fil0" d="M213 179l72 0c-1,-4 -10,-37 -15,-38l-111 0 0 157 126 0 0 -38 -72 -1 0 -20 67 -1 0 -37 -67 -1 0 -21z"/>
  <path class="fil0" d="M462 141l-55 0c-6,9 -23,75 -28,91 -5,-7 -25,-79 -27,-91l-60 0 52 157 65 0 53 -157z"/>
  <path class="fil0" d="M789 293c27,7 64,11 90,3 28,-7 46,-32 37,-64 -12,-42 -92,-30 -71,-52 11,-11 53,1 64,3l0 -40c-155,-25 -129,67 -103,84 17,12 42,9 56,21 -1,29 -58,9 -74,5l1 40z"/>
  <path class="fil0" d="M691 388c10,0 28,-2 37,1l0 11 -38 -1 1 -11zm0 -20c10,0 42,3 50,-3l0 -5c-10,-6 -50,-2 -64,-2l0 52 64 0 0 -31 -50 -1 0 -10z"/>
  <path class="fil0" d="M767 368l37 0 0 32 -37 -1 0 -31zm-13 42l64 0 0 -52 -65 0 1 52z"/>
  <path class="fil0" d="M608 410l56 0 0 -52 -62 0 0 10 48 1 0 9c-6,1 -11,1 -17,1 -21,-1 -14,0 -16,4 2,5 -4,3 6,5l28 0 -1 12c-8,0 -17,0 -25,0 -27,0 -20,-3 -23,5 2,6 -4,3 6,5z"/>
  <path class="fil0" d="M330 368l42 0c0,-13 -1,-11 -11,-10l-45 0 1 52 55 0 0 -10 -43 -1 1 -11c9,0 22,2 29,-2l0 -5c-7,-5 -20,-2 -30,-3l1 -10z"/>
  <polygon class="fil0" points="455,368 498,368 497,358 441,358 441,410 497,410 497,400 454,400 455,388 484,387 484,379 455,379 "/>
  <polygon class="fil0" points="378,358 402,410 411,410 434,358 422,358 406,388 392,357 "/>
  <polygon class="fil0" points="509,410 565,410 565,400 522,399 522,357 509,358 "/>
  <polygon class="fil0" points="254,410 307,410 307,400 266,399 266,357 253,357 "/>
 </g>
</svg>
