<?xml version="1.0" encoding="UTF-8"?>
<!DOCTYPE svg PUBLIC "-//W3C//DTD SVG 1.1//EN" "http://www.w3.org/Graphics/SVG/1.1/DTD/svg11.dtd">
<!-- Creator: CorelDRAW X8 -->
<svg xmlns="http://www.w3.org/2000/svg" xml:space="preserve" width="75px" height="50px" version="1.1" style="shape-rendering:geometricPrecision; text-rendering:geometricPrecision; image-rendering:optimizeQuality; fill-rule:evenodd; clip-rule:evenodd"
viewBox="0 0 1070 500"
 xmlns:xlink="http://www.w3.org/1999/xlink">
 <defs>
  <style type="text/css">
   <![CDATA[
    .fil0 {fill:#fff}
    .fil1 {fill:#ff}
    .fil2 {fill:#ff}
   ]]>
  </style>
 </defs>
 <g id="promark">
  <metadata id="CorelCorpID_0Corel-Layer"/>
  <path class="fil0" d="M438 296c49,0 42,3 42,-13l2 -52 25 65 32 0 27 -67 0 53c0,18 -7,14 43,14l0 -124 -57 0 -25 62c-2,5 -1,5 -4,8 -2,-6 -5,-12 -7,-18 -1,-2 -2,-5 -4,-8l-10 -26c-2,-4 -3,-6 -4,-9 -1,-4 -3,-5 -4,-9l-56 0 0 124z"/>
  <path class="fil0" d="M832 234l-17 0 -17 0c0,-9 0,-19 0,-28 0,0 -1,0 8,0 16,0 5,0 21,-1 21,1 22,29 5,29zm-76 -60l0 86c0,7 6,19 8,27 2,4 3,5 4,9 3,0 27,1 29,0 5,-2 1,-13 1,-27l32 0c1,5 11,22 13,27l49 0 -20 -38c14,-10 18,-40 11,-61 -7,-23 -23,-27 -53,-27l-70 0c-3,0 -4,1 -4,4z"/>
  <path class="fil0" d="M225 234l-32 0 0 -28c36,0 43,-4 43,18 0,4 0,6 -3,7 -1,2 -5,3 -8,3zm-74 62l38 0c6,0 4,-10 4,-27l28 0c5,9 8,18 13,27l49 0c-2,-7 -15,-28 -20,-36 5,-7 16,-13 16,-32 0,-17 1,-31 -10,-45 -5,-7 -16,-11 -27,-11l-91 0 0 124z"/>
  <path class="fil0" d="M331 234c0,-48 53,-41 53,-7 0,12 1,26 -8,35 -4,4 -14,8 -21,6 -5,-1 -10,-2 -14,-6 0,0 -3,-4 -3,-4 -4,-5 -7,-16 -7,-24zm-46 2c0,18 7,35 19,48 20,19 62,21 88,12 29,-11 43,-47 36,-78 -7,-40 -35,-52 -75,-52 -9,0 -21,3 -28,6 -17,6 -28,18 -35,34 -2,7 -5,21 -5,30z"/>
  <path class="fil0" d="M86 234l-33 0 0 -28c32,0 45,-5 45,17 0,6 -5,11 -12,11zm-75 58c0,3 1,4 4,4l38 0 0 -27c44,0 87,8 87,-51 0,-26 -11,-46 -40,-46l-89 0 0 120z"/>
  <path class="fil0" d="M900 296l43 0 0 -49c3,2 4,3 6,5 1,2 0,1 2,3 1,2 2,2 3,4 2,3 2,3 5,6 5,5 23,30 27,31l50 0c-3,-5 -2,-3 -6,-7l-43 -56c3,-2 9,-11 12,-15l34 -46 -50 0c-1,4 -25,35 -29,40 -4,4 -6,9 -11,12l0 -52 -43 0 0 124z"/>
  <path class="fil0" d="M686 206l11 37 -24 0c0,-4 9,-34 13,-37zm-75 90l45 0 7 -19 44 0c1,7 4,13 5,19l44 0 -11 -31c-2,-6 -4,-11 -6,-16l-20 -54c-3,-8 -5,-17 -9,-25l-53 0 -46 126z"/>
  <path class="fil0" d="M633 345l-13 0 0 -8c11,0 10,-1 19,1l0 6c-3,0 -3,1 -6,1zm1 -14l-14 0c0,-8 0,-7 12,-7 8,0 6,3 6,5 -2,1 -1,2 -4,2zm-20 20c12,0 43,3 29,-18 10,-18 -14,-14 -29,-14l0 32z"/>
  <path class="fil0" d="M955 333l-8 0 0 -7 14 0c2,0 4,0 4,2 0,5 -5,5 -10,5zm-15 18c8,0 7,1 7,-13l9 0 6 9c3,5 3,4 11,4 -1,-4 -4,-5 -9,-13 12,-2 10,-19 -1,-19l-23 0 0 32z"/>
  <path class="fil0" d="M727 345l-7 0 0 -19 10 0c6,0 9,3 9,9 0,7 -5,10 -12,10zm-15 6c25,0 34,2 34,-19 0,-16 -19,-13 -34,-13l0 32z"/>
  <path class="fil0" d="M872 345l-9 0 0 -21c7,0 9,2 15,2 4,5 4,3 4,10 0,6 -5,9 -10,9zm-17 2c0,8 25,3 28,1 11,-8 8,-29 -8,-29l-20 0 0 28z"/>
  <path class="fil0" d="M1023 345c-11,0 -8,-1 -14,-5l0 -11c5,-3 3,-5 13,-5 13,0 15,21 1,21zm-22 -10c0,23 39,21 39,2 0,-28 -39,-24 -39,-2z"/>
  <path class="fil0" d="M837 342c-7,4 -10,3 -18,3 0,-28 -2,-19 15,-19 3,3 8,6 3,16zm-24 9c15,0 33,2 33,-16 0,-19 -17,-16 -33,-16l0 32z"/>
  <path class="fil0" d="M785 327c1,4 4,7 4,11l-10 0 6 -11zm-20 24l6 0 4 -7 17 0 4 7 6 0c0,-9 -12,-22 -14,-32l-8 0c-3,7 -14,25 -15,32z"/>
  <path class="fil0" d="M912 327l6 11 -11 0 5 -11zm-19 24l8 0c1,-4 2,-3 3,-7l18 0c1,4 1,3 2,7l8 0 -16 -32 -7 0 -16 32z"/>
  <path class="fil0" d="M665 342l0 9 6 0c0,-23 6,-13 16,-32l-9 0c-2,7 -6,5 -8,12 -4,-1 -4,-2 -7,-5 -1,-2 -3,-5 -4,-7l-9 0 8 11c3,4 7,6 7,12z"/>
  <path class="fil0" d="M986 351l4 0 0 -32 -8 0c0,7 2,9 1,18 -1,5 -3,14 3,14z"/>
  <path class="fil1" d="M1051 181c0,3 1,2 3,3l0 -7c3,2 1,0 2,4l4 -3c0,0 1,0 1,-1 0,0 0,0 0,0l3 7 0 -12c-4,1 -4,0 -5,5 -6,-4 -1,-5 -8,-5l0 9z"/>
  <path class="fil0" d="M759 326c-3,6 -2,10 2,4 2,-3 2,-6 2,-11l-7 0c0,7 -1,5 3,7z"/>
  <polygon class="fil2" points="907,338 918,338 912,327 "/>
  <path class="fil2" d="M779 338l10 0c0,-4 -3,-7 -4,-11l-6 11z"/>
  <path class="fil1" d="M1043 174c0,7 -1,8 3,10l0 -10c7,0 2,1 4,-2l-10 0c2,3 0,1 3,2z"/>
 </g>
</svg>
