<?xml version="1.0" encoding="UTF-8"?>
<!DOCTYPE svg PUBLIC "-//W3C//DTD SVG 1.1//EN" "http://www.w3.org/Graphics/SVG/1.1/DTD/svg11.dtd">
<!-- Creator: CorelDRAW X8 -->
<svg xmlns="http://www.w3.org/2000/svg" xml:space="preserve" width="75px" height="50px" version="1.1" style="shape-rendering:geometricPrecision; text-rendering:geometricPrecision; image-rendering:optimizeQuality; fill-rule:evenodd; clip-rule:evenodd"
viewBox="0 0 1070 500"
 xmlns:xlink="http://www.w3.org/1999/xlink">
 <defs>
  <style type="text/css">
   <![CDATA[
    .fil0 {fill:#fff}
   ]]>
  </style>
 </defs>
 <g id="Layer_x0020_1">
  <metadata id="CorelCorpID_0Corel-Layer"/>
  <g id="_2765767916080">
   <path class="fil0" d="M20 115l1034 0 0 266 -1034 0 0 -266zm-18 283l1070 0 0 -299 -1070 0 0 299z"/>
   <path class="fil0" d="M100 307l15 0 18 -48c0,-2 1,-6 2,-7 1,5 3,9 5,14 2,4 14,40 15,41l15 0 4 -12c2,-4 3,-8 4,-12 4,-7 7,-20 10,-29l5 -12c1,-5 10,-27 10,-29l-18 0c-1,1 -5,14 -6,16l-11 35c-1,3 -1,5 -2,8l-3 9 -6 -17c-2,-6 -4,-11 -6,-17 -2,-5 -11,-33 -12,-34l-18 0 6 16c-2,3 -4,10 -5,13 -1,2 -2,5 -2,7 -3,9 -9,25 -11,33 -1,-2 -4,-14 -6,-18l-11 -34c-1,-3 -5,-16 -6,-17l-20 0c0,2 26,71 30,82 1,4 3,8 4,12z"/>
   <path class="fil0" d="M567 307l15 0 5 -14c2,-5 3,-9 5,-14l10 -27c2,8 11,31 15,41 0,2 4,12 5,14l15 0c1,-4 3,-8 4,-12l18 -53c2,-5 10,-27 10,-29l-18 0c-1,1 -14,45 -16,51 -1,3 -5,17 -6,18 0,-4 -4,-14 -5,-18l-19 -51 -18 0c1,3 6,15 6,17 0,1 -13,37 -15,43 0,1 -1,3 -1,4 -1,2 -1,4 -2,5l-9 -30c-3,-9 -9,-25 -11,-31 0,-3 -2,-6 -2,-8l-20 0c0,2 24,66 27,76 1,2 2,4 2,6 2,3 4,9 5,12z"/>
   <path class="fil0" d="M430 292c-2,-3 -1,-57 -1,-65 12,0 24,0 34,6 19,13 15,44 0,53 -11,6 -20,6 -33,6zm-19 14c2,1 24,1 28,0 1,0 1,0 2,0 4,0 8,0 13,-1 17,-3 31,-12 38,-29 4,-11 4,-26 -1,-37 -2,-5 -6,-11 -9,-13 -12,-10 -18,-11 -32,-13 -5,-1 -27,0 -33,0 -7,0 -6,-2 -6,5 0,9 0,86 0,88z"/>
   <path class="fil0" d="M955 256l0 -29c9,0 25,-1 25,14 0,16 -16,15 -25,15zm-18 -43c0,1 0,91 0,93 2,1 16,1 18,0 0,-2 0,-31 0,-36 7,0 9,-2 13,4 4,5 19,32 20,32 3,1 18,1 20,0 0,-2 -5,-9 -6,-11 -2,-4 -4,-7 -7,-11 -2,-4 -4,-7 -6,-11 -2,-2 -3,-3 -4,-5 -1,-1 -1,-1 -2,-2 -1,-1 -2,-2 -3,-2 4,-3 22,-5 18,-31 0,-3 -3,-8 -5,-11 -6,-7 -19,-9 -27,-9l-12 0c-3,0 -15,-1 -17,0z"/>
   <path class="fil0" d="M849 237c1,3 7,19 9,24 0,2 2,6 3,7l-23 0c0,-2 4,-12 5,-16 1,-2 6,-15 6,-15zm-44 69c1,1 15,1 17,0 2,-1 4,-9 5,-11 1,-2 4,-11 5,-12l34 0c1,1 2,4 3,6 0,1 1,4 2,5 1,2 4,11 5,12 2,1 17,1 19,0 0,-1 -38,-92 -39,-94l-14 0c-1,2 -9,21 -10,23 -4,12 -10,25 -14,36 -1,4 -3,8 -5,11l-7 18c0,2 -2,4 -1,6z"/>
   <path class="fil0" d="M712 213c-1,2 -1,83 -1,93 4,1 53,1 54,0 1,-2 1,-11 1,-14 -5,0 -34,0 -37,-1 0,-2 0,-21 0,-25l31 0 0 -15 -31 0 0 -24 31 0c1,-1 5,-13 5,-14 -8,-1 -18,0 -27,0 -4,0 -24,-1 -26,0z"/>
   <path class="fil0" d="M316 306c3,1 47,1 51,0 1,-1 1,0 1,-2l0 -12c-7,0 -29,0 -34,0 -1,-3 -1,-62 -1,-75 0,-6 1,-4 -4,-10l-10 -13c-1,-1 -2,-3 -4,-4 0,12 0,114 1,116z"/>
   <path class="fil0" d="M245 213c-1,1 -1,91 0,93 2,1 4,0 8,0 3,0 6,0 10,0l0 -93c-4,0 -16,-1 -18,0z"/>
  </g>
 </g>
</svg>
