<?xml version="1.0" encoding="UTF-8"?>
<!DOCTYPE svg PUBLIC "-//W3C//DTD SVG 1.1//EN" "http://www.w3.org/Graphics/SVG/1.1/DTD/svg11.dtd">
<!-- Creator: CorelDRAW X8 -->
<svg xmlns="http://www.w3.org/2000/svg" xml:space="preserve" width="75px" height="50px" version="1.1" style="shape-rendering:geometricPrecision; text-rendering:geometricPrecision; image-rendering:optimizeQuality; fill-rule:evenodd; clip-rule:evenodd"
viewBox="0 0 1070 500"
 xmlns:xlink="http://www.w3.org/1999/xlink">
 <defs>
  <style type="text/css">
   <![CDATA[
    .fil0 {fill:#fff}
   ]]>
  </style>
 </defs>
 <g id="zildjian">
  <metadata id="CorelCorpID_0Corel-Layer"/>
  <g id="_2765767916688">
   <path class="fil0" d="M746 314c0,-5 4,-10 7,-12 3,-2 7,-6 11,-7 8,7 13,21 18,29 -7,5 -7,6 -17,6 -8,0 -19,-6 -19,-16zm-238 -8c0,-15 9,-31 19,-39 2,-2 8,-5 12,-5 2,0 34,32 12,53 -4,4 -10,6 -16,8 -14,5 -27,1 -27,-17zm-465 -120c4,-1 15,-7 22,-9 7,-2 15,-5 23,-7 35,-8 75,0 110,6 9,1 17,2 27,4 9,1 18,3 28,3 -2,2 -5,4 -7,6 -27,24 -61,38 -92,54l-27 13c-18,9 -35,18 -52,27 -8,5 -17,11 -24,16 -3,2 -5,4 -8,6l-14 13 -12 14c-5,7 -12,19 -14,26 2,0 16,-5 20,-6 20,-5 43,-6 64,-5 3,0 3,1 6,1 16,0 31,3 46,5 15,2 29,5 44,8l43 8c7,1 14,2 21,4 15,3 32,4 46,0 16,-3 29,-13 40,-24 1,-1 2,-2 3,-3 1,-2 1,-2 3,-4 15,23 42,19 62,5 3,-2 5,-4 7,-6 3,2 6,8 9,10 3,3 7,6 11,7 11,3 21,0 29,-5 3,-1 5,-3 8,-4 2,-2 5,-4 7,-6 5,4 3,6 13,11 6,3 12,4 19,5 19,2 41,-7 55,-15 2,-2 4,-4 6,-5 12,-10 18,-18 26,-30l1 -2c0,7 2,12 2,19 -1,26 0,45 -10,70 -1,4 -3,10 -6,13 -10,18 -23,31 -45,35 -20,3 -21,-2 -36,-2 -7,0 -10,1 -11,8 -2,11 5,22 17,21 13,0 25,0 36,-4 5,-1 11,-3 15,-5 8,-4 16,-9 24,-15 7,-6 13,-14 19,-21 2,-4 5,-8 7,-12 6,-11 11,-23 16,-35 12,-34 17,-72 17,-112 3,0 5,-1 9,-2 4,-1 8,1 9,3 6,5 -4,47 -1,66 0,3 1,6 3,9 4,8 12,13 20,15 15,3 31,-4 39,-9 8,12 28,12 40,9 20,-5 35,-16 38,-17 2,2 21,28 51,14 5,-3 10,-6 14,-11 0,8 -4,13 -4,21 7,0 14,-2 18,-4 3,-1 5,-2 8,-4 1,-1 2,-1 3,-3 5,-4 9,-9 12,-16 11,-27 9,-67 33,-68 12,0 13,5 17,17 2,5 5,11 7,16 4,11 9,21 15,31 1,2 2,4 4,6 1,2 1,2 2,3 10,11 20,17 35,17 20,-1 58,-28 56,-35 -1,-2 -2,-1 -4,-1 -4,2 -8,4 -13,5 -28,5 -39,-24 -47,-44 -4,-10 -8,-22 -12,-33 -2,-5 -5,-10 -8,-14 -17,-22 -52,-6 -70,6 -1,1 -2,1 -3,2l-7 5c-2,-4 -2,-8 -5,-12 -14,-20 -44,-1 -57,9 -15,12 1,6 10,13 7,6 10,14 12,22 1,8 1,36 -2,39 -1,1 -4,2 -6,2 -18,1 -30,-18 -38,-31 -2,-3 -4,-7 -6,-10 -2,-4 -4,-7 -6,-11 -3,-4 -4,-7 -7,-11 -4,-6 -9,-14 -14,-19l-10 -7c-3,-2 -9,-4 -14,-4 -14,2 -35,16 -42,25 -6,8 0,6 5,5 13,-2 30,4 33,18 -16,0 -32,21 -38,35 -2,4 -3,9 -4,14 -1,4 0,4 -4,4 -26,3 -14,-50 -12,-63 1,-11 3,-24 -4,-30 -7,-8 -21,0 -27,3 -5,2 -9,4 -13,6 -4,2 -8,5 -13,6 1,-3 1,-21 1,-26 -4,0 -6,1 -9,2 -2,1 -5,3 -7,5 -6,5 -11,11 -16,17 -2,3 -3,5 -5,7 -1,3 -2,5 -4,7 -1,2 -1,2 -2,4l-2 3c-2,-5 -16,-26 -19,-30 -3,-5 -7,-9 -11,-14 -4,-5 -10,-12 -14,-16l-6 -6c-1,-2 -1,-2 -3,-4 -6,-6 -11,-13 -17,-19 -4,-4 -8,-9 -12,-13 -2,-3 -3,-5 -5,-7 -4,-5 -7,-10 -11,-14l-9 -15c-2,-3 -3,-5 -5,-8 -1,-3 -2,-5 -4,-8 -11,-23 -17,-54 -3,-78 3,-6 8,-10 11,-15 -9,1 -24,9 -31,15 -31,24 -25,69 -11,101 4,10 10,20 16,29 7,12 15,23 23,33l11 12c5,6 19,22 25,26 1,2 2,1 3,3 -7,3 -15,3 -29,15 -1,0 -2,1 -3,2 -15,13 -23,28 -26,48 0,3 0,6 0,9 0,2 0,4 0,8 -5,3 -22,16 -23,-6 0,-6 0,-15 1,-21 0,-2 0,-3 0,-6l6 -79c1,-6 1,-23 1,-26 1,-5 -1,-9 -3,-11 -9,-8 -31,4 -40,10 -4,3 -21,14 -22,20 -1,3 2,2 4,2 2,-1 3,-1 6,-2 5,0 13,-1 16,4 1,2 1,3 1,6 0,4 0,9 -1,12 -1,6 -1,26 -2,33l-1 20c0,3 0,5 0,7 0,3 -1,4 -1,7 0,4 0,10 0,14 0,2 0,4 0,6 0,4 0,5 0,7 -5,2 -11,8 -23,5 -12,-3 -11,-6 -11,-19 0,-4 1,-8 1,-13 1,-4 1,-9 2,-13 1,-13 2,-28 0,-41 -1,-5 -5,-6 -9,-6 -10,0 -23,7 -31,13 -5,3 -23,14 -23,21 3,0 7,-1 9,-2 2,0 7,-2 9,-2 5,1 7,10 7,16 1,11 -1,21 -2,31 -1,4 -1,8 -2,10 -19,29 -56,16 -85,6 -30,-10 -59,-19 -90,-24l-21 -2c-8,0 -15,1 -22,1l7 -5c15,-10 35,-21 51,-31 10,-6 20,-11 30,-18 9,-6 19,-12 28,-18 14,-9 28,-20 41,-30 6,-4 11,-9 17,-13 1,-1 1,-1 3,-3l18 -17c7,-8 16,-18 21,-27 -7,0 -15,2 -21,2 -25,0 -41,1 -66,-3 -14,-2 -26,-4 -38,-8 -10,-2 -19,-4 -29,-6 -17,-3 -35,0 -50,4 -17,5 -33,12 -47,22 -7,5 -14,9 -20,15 -2,1 -2,1 -3,2 -2,2 -2,2 -4,3 -2,2 -3,4 -5,6 -2,1 -5,3 -6,6z"/>
   <path class="fil0" d="M592 186c7,2 16,14 16,25 0,8 -1,12 -4,19 -1,2 -2,3 -2,6 1,-1 5,-2 7,-3 20,-6 32,-21 32,-43 0,-8 -4,-24 -10,-28 -2,-2 -4,0 -8,3l-23 15c-2,2 -7,4 -8,6z"/>
   <path class="fil0" d="M648 187c2,1 1,1 3,2 1,1 1,1 2,2 12,11 11,27 6,40 0,2 -1,4 -1,5 8,-1 21,-11 26,-18 18,-24 13,-60 5,-60 -4,0 -32,22 -39,27 -1,1 -2,1 -2,2z"/>
   <path class="fil0" d="M340 181c1,4 20,9 13,40 -1,4 -3,8 -3,10 11,-6 17,-11 25,-22 6,-9 10,-23 10,-38 0,-5 -1,-18 -6,-18 -2,0 -17,12 -20,14 -2,1 -17,13 -19,14z"/>
   <polygon class="fil0" points="43,186 42,186 43,186 "/>
  </g>
 </g>
</svg>
